<svg width="43" height="43" viewBox="0 0 43 43" fill="none" xmlns="http://www.w3.org/2000/svg">
<path d="M21.4999 0.42981C9.76093 0.42981 0.429932 9.76081 0.429932 21.4998C0.429932 33.2388 9.76093 42.5698 21.4999 42.5698C33.2389 42.5698 42.5699 33.2388 42.5699 21.4998C42.5699 9.76081 33.2389 0.42981 21.4999 0.42981ZM21.4999 8.85781C24.8109 8.85781 27.5199 11.5668 27.5199 14.8778C27.5199 18.1888 24.8109 20.8978 21.4999 20.8978C18.1889 20.8978 15.4799 18.1888 15.4799 14.8778C15.4799 11.5668 18.1889 8.85781 21.4999 8.85781ZM34.4429 33.2388C31.1319 36.5498 26.6169 38.9578 21.4999 38.9578C16.3829 38.9578 11.8679 36.8508 8.55693 33.2388C7.65393 32.3358 7.65393 30.8308 8.55693 29.9278C11.8679 26.3158 16.3829 23.9078 21.4999 23.9078C26.6169 23.9078 31.1319 26.3158 34.4429 29.9278C35.3459 30.8308 35.3459 32.3358 34.4429 33.2388Z" fill="#1039a8"/>
</svg>
