<svg width="20" height="11" viewBox="0 0 20 11" fill="none" xmlns="http://www.w3.org/2000/svg">
<path d="M10 0C3.43878 0 0 4.74636 0 5.5C0 6.25164 3.43878 11 10 11C16.5592 11 20 6.25164 20 5.5C20 4.74636 16.5592 0 10 0ZM10 9.72923C7.5449 9.72923 5.5551 7.83509 5.5551 5.5C5.5551 3.1629 7.5449 1.26877 10 1.26877C12.4551 1.26877 14.4449 3.1629 14.4449 5.5C14.4449 7.8371 12.4551 9.72923 10 9.72923ZM10 5.5C9.59388 5.06104 10.6633 3.38539 10 3.38539C8.77143 3.38539 7.77755 4.33345 7.77755 5.5C7.77755 6.66654 8.77143 7.61461 10 7.61461C11.2265 7.61461 12.2224 6.66654 12.2224 5.5C12.2224 4.96283 10.3469 5.87281 10 5.5Z" fill="white"/>
</svg>
