<svg width="20" height="18" viewBox="0 0 20 18" fill="none" xmlns="http://www.w3.org/2000/svg">
<path d="M9.87755 9.54394C9.91837 9.50657 9.95918 9.46713 10 9.42976C10.0408 9.4692 10.0816 9.50657 10.1224 9.54394H9.87755ZM2.43061 9.54394C1.40612 8.61799 0.769388 7.31419 0.769388 5.8692C0.769388 3.06021 3.17959 0.782699 6.15306 0.782699C7.65918 0.782699 9.02245 1.36817 10 2.30865C10.9776 1.36609 12.3388 0.782699 13.8469 0.782699C16.8204 0.782699 19.2306 3.06021 19.2306 5.8692C19.2306 7.31419 18.5939 8.61799 17.5694 9.54394H17.5837L10.0184 17.0408L2.40408 9.54394H2.43061ZM1.75918 10.09C0.673469 9.02284 0 7.52595 0 5.8692C0 2.62837 2.58367 0 5.76939 0C7.44082 0 8.94694 0.722491 10 1.87889C11.0531 0.722491 12.5592 0 14.2306 0C17.4163 0 20 2.62837 20 5.8692C20 7.52595 19.3245 9.02284 18.2388 10.09H18.2429L10 18L1.74898 10.092L1.75918 10.09Z" fill="white"/>
</svg>
