<svg width="68" height="68" viewBox="0 0 68 68" fill="none" xmlns="http://www.w3.org/2000/svg">
<path d="M31.2059 0.227509C28.9268 0.777439 26.567 2.70767 25.4405 4.93338C24.7832 6.24733 24.5021 7.50725 24.5691 8.72749L24.6095 9.43816L25.5479 9.76032C27.8673 10.538 30.9508 12.3479 33.7394 14.5599C35.5492 16.0079 39.907 20.4053 41.3009 22.1885C43.4726 25.0038 44.948 27.5243 45.8461 29.9778L46.2346 31.0503H47.3611C49.4528 31.0366 51.316 30.1919 53.0191 28.4894C57.1217 24.3602 56.3974 18.6618 50.8741 11.6769C49.7079 10.2152 45.4706 5.96552 43.9829 4.78564C39.1559 0.951172 34.7319 -0.630903 31.2059 0.227509Z" fill="#1039a8"/>
<path d="M18.4822 12.9504C15.4925 13.7015 12.8379 16.3697 12.0739 19.3998C11.645 21.0352 11.578 20.9149 13.3878 21.5045C17.3297 22.7651 21.3516 25.4867 25.7489 29.8971C29.1675 33.3157 31.474 36.3594 33.0157 39.4832C33.686 40.8642 34.37 42.7548 34.6511 43.988C34.6915 44.2028 38.6196 48.211 45.4842 55.0625C54.8556 64.3943 56.3576 65.8553 57.108 66.2308C58.2338 66.8204 59.1189 67.0488 60.3522 67.0488C63.3822 67.0488 66.0635 64.9709 66.8412 62.0208C67.0956 61.0016 67.0956 59.514 66.8275 58.5885C66.279 56.7116 66.5868 57.0468 54.279 44.726L42.7756 33.1953L42.5075 32.1898C42.132 30.8492 40.7243 27.9935 39.6655 26.4518C35.4418 20.3649 28.5376 14.6666 23.6436 13.2056C22.1689 12.763 19.6888 12.6426 18.4822 12.9504Z" fill="black"/>
<path d="M6.68405 24.7624C5.06162 25.1516 3.19843 26.3581 2.00486 27.7924C-1.40074 31.8814 -0.462306 37.3649 4.77982 43.988C5.94603 45.4627 10.21 49.7131 11.671 50.8793C18.656 56.4032 24.3947 57.1269 28.4836 53.0243C29.5965 51.8977 30.3338 50.7315 30.7497 49.4176C31.1922 47.9962 31.1519 45.5831 30.656 43.9203C29.959 41.5886 28.3899 38.8266 26.2045 36.0783C24.9843 34.5496 21.0158 30.5948 19.4474 29.3479C14.5944 25.4867 10.1834 23.9046 6.68405 24.7624Z" fill="#1039a8"/>
</svg>
