<svg width="14" height="16" viewBox="0 0 14 16" fill="none" xmlns="http://www.w3.org/2000/svg">
<path d="M14 6.73959C14 3.01714 10.8663 0 7 0C3.13372 0 0 3.01714 0 6.73959C0 8.83755 0.995397 10.7118 2.55717 11.9478L6.17418 15.6016C6.36071 15.8433 6.65916 16 6.99491 16C7.30523 16 7.58333 15.8661 7.76986 15.6571L11.57 11.8433C11.9041 11.5657 12.2093 11.2588 12.484 10.9257L12.6383 10.7706H12.6078C13.4828 9.64735 14 8.25143 14 6.73959ZM6.9983 10.0849C4.85659 10.0849 3.12185 8.41469 3.12185 6.35265C3.12185 4.29061 4.85659 2.62041 6.9983 2.62041C9.13832 2.62041 10.8748 4.29061 10.8748 6.35265C10.8748 8.41469 9.14002 10.0849 6.9983 10.0849Z" fill="#1039a8"/>
</svg>
