<svg width="10" height="18" viewBox="0 0 10 18" fill="none" xmlns="http://www.w3.org/2000/svg">
<path d="M8.79 0.940186H1.20999C0.54253 0.940186 0 1.48272 0 2.15018V16.5041C0 17.1716 0.54253 17.7141 1.20999 17.7141H8.79C9.45747 17.7141 10 17.1716 10 16.5041V2.15018C9.99829 1.48272 9.45576 0.940186 8.79 0.940186ZM6.18004 1.42453L6.05169 1.65386H3.99452L3.84563 1.42453H6.18004ZM9.51566 16.5024C9.51566 16.9029 9.19048 17.2281 8.79 17.2281H1.20999C0.809516 17.2281 0.48434 16.9029 0.48434 16.5024V2.15018C0.48434 1.7497 0.809516 1.42453 1.20999 1.42453H3.59233L3.84905 1.81987C3.86959 1.85068 3.9021 1.8695 3.93976 1.8695H6.11672C6.15608 1.8695 6.19202 1.84897 6.21085 1.81474L6.4282 1.42624H8.79171C9.19219 1.42624 9.51737 1.75141 9.51737 2.15189L9.51566 16.5024Z" fill="#1039a8"/>
<path d="M9.21959 3.02295H0.77872C0.718819 3.02295 0.670898 3.07087 0.670898 3.13077V15.549C0.670898 15.6089 0.718819 15.6569 0.77872 15.6569H9.21788C9.27778 15.6569 9.3257 15.6089 9.3257 15.549V3.13077C9.3257 3.07087 9.27778 3.02295 9.21959 3.02295ZM9.11177 15.4412H0.886541V3.23688H9.11177V15.4412Z" fill="#1039a8"/>
<path d="M7.19998 2.13653H7.5765C7.6809 2.13653 7.76476 2.05267 7.76476 1.94827C7.76476 1.84387 7.6809 1.76001 7.5765 1.76001H7.19998C7.09558 1.76001 7.01172 1.84387 7.01172 1.94827C7.01172 2.05267 7.09558 2.13653 7.19998 2.13653Z" fill="#1039a8"/>
<path d="M5.94076 15.9888H4.05816C3.84937 15.9888 3.67822 16.1599 3.67822 16.3687C3.67822 16.5775 3.84937 16.7487 4.05816 16.7487H5.94076C6.15127 16.7487 6.3207 16.5775 6.3207 16.3687C6.3207 16.1582 6.14956 15.9888 5.94076 15.9888ZM5.94076 16.6066H4.05816C3.92638 16.6066 3.82027 16.5005 3.82027 16.3687C3.82027 16.2369 3.92638 16.1308 4.05816 16.1308H5.94076C6.07254 16.1308 6.17865 16.2369 6.17865 16.3687C6.17865 16.5005 6.07083 16.6066 5.94076 16.6066Z" fill="#1039a8"/>
<path d="M2.74338 16.2165H2.39253V16.1086L2.08447 16.2866L2.39253 16.4646V16.3585H2.6715V16.4971H2.32579C2.28642 16.4971 2.25391 16.5297 2.25391 16.569C2.25391 16.6084 2.28642 16.6409 2.32579 16.6409H2.74167C2.78103 16.6409 2.81355 16.6084 2.81355 16.569V16.2866C2.81526 16.249 2.78274 16.2165 2.74338 16.2165Z" fill="#1039a8"/>
<path d="M7.83823 16.0969H7.16563C7.12627 16.0969 7.09375 16.1294 7.09375 16.1688C7.09375 16.2082 7.12627 16.2407 7.16563 16.2407H7.83823C7.87759 16.2407 7.91011 16.2082 7.91011 16.1688C7.91011 16.1277 7.87759 16.0969 7.83823 16.0969Z" fill="#1039a8"/>
<path d="M7.83823 16.2576H7.16563C7.12627 16.2576 7.09375 16.2901 7.09375 16.3294C7.09375 16.3688 7.12627 16.4013 7.16563 16.4013H7.83823C7.87759 16.4013 7.91011 16.3688 7.91011 16.3294C7.91011 16.2884 7.87759 16.2576 7.83823 16.2576Z" fill="#1039a8"/>
<path d="M7.83823 16.4185H7.16563C7.12627 16.4185 7.09375 16.451 7.09375 16.4903C7.09375 16.5297 7.12627 16.5622 7.16563 16.5622H7.83823C7.87759 16.5622 7.91011 16.5297 7.91011 16.4903C7.91011 16.451 7.87759 16.4185 7.83823 16.4185Z" fill="#1039a8"/>
</svg>
