<svg width="21" height="21" viewBox="0 0 21 21" fill="none" xmlns="http://www.w3.org/2000/svg">
<path d="M7.875 2.625C10.77 2.625 13.125 4.9794 13.125 7.875C13.125 8.96591 12.7886 10.0142 12.1521 10.9091L11.6357 11.6357L10.9093 12.1513C10.0157 12.7884 8.96571 13.125 7.875 13.125C4.98 13.125 2.625 10.7706 2.625 7.875C2.625 4.9794 4.98 2.625 7.875 2.625ZM7.875 0C3.525 0 0 3.52628 0 7.875C0 12.2237 3.525 15.75 7.875 15.75C9.57429 15.75 11.145 15.2067 12.4307 14.2905L18.7543 20.6143C19.0114 20.8722 19.3479 21 19.6843 21C20.0207 21 20.3571 20.8722 20.6143 20.6143C21.1286 20.1009 21.1286 19.2678 20.6143 18.7543L14.2907 12.4304C15.2057 11.1435 15.75 9.57315 15.75 7.875C15.75 3.52628 12.225 0 7.875 0Z" fill="white"/>
</svg>
