<svg width="16" height="16" viewBox="0 0 16 16" fill="none" xmlns="http://www.w3.org/2000/svg">
<path d="M7.3821 0.00932143C6.65295 0.0844536 6.08038 0.200255 5.48887 0.397559C3.07614 1.18939 1.17982 3.08647 0.388149 5.50017C0.100312 6.37367 -0.00303448 7.03728 6.7558e-05 8.02021C6.7558e-05 8.81857 0.056394 9.29435 0.228475 9.97674C0.503903 11.0631 1.07027 12.1838 1.78064 13.0603C2.06847 13.4171 2.6381 13.9806 2.99174 14.2624C3.85541 14.9511 4.95696 15.499 6.02079 15.7712C6.70291 15.9434 7.17867 15.9997 7.97654 15.9997C8.72756 16.0028 8.97164 15.9809 9.64446 15.8433C10.7929 15.6148 12.0696 15.0075 13.0147 14.2436C13.3965 13.9338 13.9535 13.3765 14.257 12.9977C14.936 12.1494 15.4869 11.0348 15.7529 9.97674C16.4475 7.21564 15.6559 4.34804 13.6531 2.34136C12.4139 1.10168 10.8993 0.343986 9.11875 0.0686102C8.80283 0.0217343 7.65752 -0.0189348 7.3821 0.00932143ZM7.42895 2.93311V4.47021L7.26618 4.45143C6.74046 4.38887 6.37426 4.33252 6.07075 4.2636C5.67336 4.17279 5.20708 4.0351 5.20708 4.00684C5.20708 3.96617 5.50438 3.43714 5.67336 3.18349C6.05834 2.59811 6.62781 1.97517 7.13165 1.59004C7.26928 1.48665 7.3914 1.3991 7.40707 1.3991C7.41965 1.39927 7.42895 2.09097 7.42895 2.93311ZM8.8216 1.56194C9.32234 1.9345 9.91989 2.5888 10.3143 3.18676C10.4802 3.43714 10.7775 3.96634 10.7775 4.00701C10.7775 4.03526 10.3112 4.17295 9.91385 4.26376C9.61034 4.33269 9.24413 4.38904 8.72152 4.45159L8.55564 4.47037V2.93327C8.55564 2.09114 8.56495 1.39927 8.58062 1.39927C8.5932 1.39927 8.70258 1.4744 8.8216 1.56194ZM5.42634 1.63087C5.42634 1.63708 5.33247 1.75304 5.21981 1.88763C4.96006 2.20073 4.60953 2.72666 4.36561 3.16487C4.26243 3.35581 4.17165 3.52175 4.16528 3.54053C4.15271 3.5781 3.88986 3.43404 3.52382 3.19297C3.21704 2.98945 3.20774 3.03339 3.65835 2.66704C4.12773 2.28828 4.67222 1.95018 5.16659 1.72789C5.42945 1.61209 5.42634 1.61209 5.42634 1.63087ZM11.0716 1.85627C11.4972 2.06909 12.0198 2.41028 12.3953 2.72339C12.5517 2.85487 12.6895 2.97377 12.6988 2.99256C12.7114 3.00824 12.6018 3.09905 12.4609 3.19297C12.0854 3.43714 11.832 3.5781 11.8195 3.54053C11.8133 3.52175 11.7225 3.35581 11.6191 3.16487C11.3751 2.72339 11.0778 2.27897 10.8149 1.95655C10.5364 1.61535 10.5333 1.61225 10.6428 1.65292C10.6897 1.67154 10.8838 1.76235 11.0716 1.85627ZM2.76023 4.0413C2.89476 4.13212 3.15761 4.29806 3.34537 4.40766C3.53622 4.51415 3.6959 4.60806 3.7021 4.61117C3.70831 4.61737 3.65508 4.82088 3.58635 5.06816C3.41427 5.66612 3.31092 6.20135 3.24839 6.76811C3.22341 7.02487 3.19206 7.28473 3.18586 7.33781L3.17018 7.44103H2.15631C1.23941 7.44103 1.13933 7.43483 1.13933 7.39089C1.13933 7.3628 1.16121 7.19048 1.18945 7.00592C1.31468 6.145 1.59321 5.34044 2.02178 4.59549C2.20953 4.26997 2.47549 3.87226 2.50684 3.87226C2.51614 3.87226 2.6288 3.94739 2.76023 4.0413ZM13.6813 4.14469C14.16 4.85845 14.4668 5.55032 14.6702 6.36109C14.7391 6.64284 14.8454 7.25957 14.8454 7.39106C14.8454 7.43483 14.7453 7.4412 13.8285 7.4412H12.8115L12.7989 7.36917C12.7894 7.3316 12.777 7.18134 12.7645 7.03418C12.7238 6.44243 12.5893 5.73504 12.3796 5.00251C12.3171 4.78021 12.2827 4.60806 12.3014 4.60186C12.3703 4.57687 13.0805 4.14175 13.2559 4.01338C13.3623 3.93514 13.4593 3.87242 13.475 3.87242C13.4872 3.87226 13.5811 3.99443 13.6813 4.14469ZM5.77671 5.35612C6.12397 5.43746 6.80316 5.54084 7.21932 5.57841L7.42895 5.6003V6.52067V7.4412H5.86749H4.30602L4.31859 7.32229C4.39679 6.54598 4.49377 5.9887 4.64724 5.44709C4.70047 5.26237 4.75043 5.09969 4.75679 5.09021C4.763 5.07764 4.91647 5.1152 5.09785 5.17482C5.27614 5.23101 5.58275 5.31234 5.77671 5.35612ZM11.3375 5.4533C11.5065 6.06383 11.6536 6.90907 11.6536 7.28783V7.4412H10.1045H8.55548V6.52083V5.60046L8.76822 5.57857C9.51613 5.50965 10.3047 5.35938 10.8773 5.17466C11.0557 5.11831 11.209 5.08074 11.2183 5.09005C11.2311 5.09953 11.2843 5.2622 11.3375 5.4533ZM3.18569 8.69966C3.19516 8.77479 3.21067 8.93126 3.22014 9.05344C3.27337 9.71395 3.45492 10.5936 3.68643 11.3105C3.7052 11.37 3.67712 11.3951 3.46422 11.5109C3.2639 11.6205 2.80398 11.9147 2.54733 12.0994C2.49721 12.137 2.47843 12.1182 2.35337 11.9429C1.88708 11.2855 1.50847 10.4529 1.31762 9.66397C1.24562 9.36638 1.13917 8.74654 1.13917 8.61816C1.13917 8.57439 1.23925 8.56802 2.15304 8.56802H3.17002L3.18569 8.69966ZM7.42275 9.48218L7.41344 10.3994L7.11614 10.4213C6.49965 10.4684 5.79875 10.603 5.12904 10.8065C4.93198 10.8659 4.7661 10.9161 4.75663 10.9161C4.75043 10.9161 4.70341 10.7658 4.65018 10.578C4.52496 10.1491 4.4061 9.5511 4.36235 9.13167C4.34357 8.95005 4.32479 8.7498 4.31859 8.68398L4.30602 8.56818H5.86749H7.42895L7.42275 9.48218ZM11.666 8.68398C11.6598 8.74964 11.641 8.95005 11.6223 9.13167C11.5785 9.54179 11.4595 10.1429 11.3375 10.5718C11.2843 10.7501 11.2374 10.9036 11.2342 10.9099C11.228 10.913 11.059 10.8692 10.8587 10.8097C10.1858 10.6031 9.48805 10.4685 8.86846 10.4215L8.57115 10.3996L8.56185 9.48234L8.55564 8.56818H10.1171H11.6786L11.666 8.68398ZM14.8454 8.61816C14.8454 8.74964 14.739 9.36638 14.6702 9.64812C14.4668 10.4589 14.1602 11.1508 13.6813 11.8645C13.5594 12.0492 13.4841 12.1306 13.4591 12.1149C13.4373 12.0992 13.2683 11.9865 13.0774 11.8582C12.8897 11.7329 12.6299 11.5733 12.508 11.5044C12.3827 11.4355 12.2796 11.376 12.2796 11.3698C12.2796 11.3636 12.314 11.2476 12.3578 11.113C12.5329 10.5526 12.6862 9.80133 12.7489 9.17838C12.7677 8.98745 12.7896 8.77447 12.7991 8.6995L12.8147 8.56802H13.8317C14.7452 8.56818 14.8454 8.57439 14.8454 8.61816ZM7.42895 13.0918C7.42895 13.9432 7.41965 14.6415 7.41018 14.6415C7.35075 14.6415 6.85948 14.2313 6.54961 13.9215C6.1741 13.549 5.93002 13.2453 5.63581 12.7945C5.4074 12.4376 5.16643 11.99 5.19777 11.9712C5.24479 11.9429 5.883 11.7646 6.11777 11.7144C6.4683 11.6362 7.08152 11.5485 7.26618 11.5454L7.42895 11.5423V13.0918ZM9.15646 11.5922C9.35042 11.6172 9.64462 11.6674 9.8074 11.7018C10.0921 11.7644 10.7369 11.9398 10.7868 11.971C10.8182 11.9898 10.5741 12.4468 10.3267 12.8257C9.91058 13.4612 9.36299 14.0623 8.83091 14.463C8.69948 14.56 8.58373 14.6413 8.57426 14.6413C8.56479 14.6413 8.55548 13.9432 8.55548 13.0916V11.5421H8.68071C8.7465 11.5421 8.96234 11.564 9.15646 11.5922ZM4.31549 12.7787C4.53459 13.1888 4.9132 13.7647 5.18536 14.103C5.30112 14.2439 5.37932 14.3597 5.36055 14.3597C5.27614 14.3597 4.52822 13.9558 4.17459 13.718C3.80218 13.4676 3.26716 13.0387 3.26716 12.9886C3.27027 12.9479 4.04953 12.4501 4.11516 12.4501C4.12773 12.4501 4.21835 12.5971 4.31549 12.7787ZM12.1418 12.6002C12.5016 12.8194 12.7176 12.9632 12.7176 12.9884C12.7176 13.0353 12.1857 13.4642 11.8289 13.7053C11.4941 13.9307 10.7024 14.3596 10.6211 14.3596C10.6023 14.3596 10.6805 14.2469 10.7932 14.1092C11.0686 13.7711 11.3814 13.2953 11.6381 12.8319C11.7538 12.6222 11.8572 12.4501 11.8696 12.4501C11.8851 12.4501 12.004 12.5188 12.1418 12.6002Z" fill="#1039a8"/>
</svg>
